<?xml version="1.0" encoding="UTF-8" standalone="no" ?>
<!DOCTYPE svg PUBLIC "-//W3C//DTD SVG 1.1//EN" "http://www.w3.org/Graphics/SVG/1.1/DTD/svg11.dtd">
<svg xmlns="http://www.w3.org/2000/svg" xmlns:xlink="http://www.w3.org/1999/xlink" version="1.1" width="80" height="80" viewBox="0 0 400 400" xml:space="preserve">
<desc>Created with Fabric.js 3.6.2</desc>
<defs>
</defs>
<g transform="matrix(4.17 0 0 4.17 139.58 200)" id="Layer_1"  >
<path style="stroke: none; stroke-width: 1; stroke-dasharray: none; stroke-linecap: butt; stroke-dashoffset: 0; stroke-linejoin: miter; stroke-miterlimit: 4; fill: rgb(84,110,122); fill-rule: nonzero; opacity: 1;"  transform=" translate(-9.5, -24)" d="M 14 32 H 7 c -1.1 0 -2 -0.9 -2 -2 V 18 c 0 -1.1 0.9 -2 2 -2 h 7 V 32 z" stroke-linecap="round" />
</g>
<g transform="matrix(4.17 0 0 4.17 183.33 200)" id="Layer_1"  >
<polygon style="stroke: none; stroke-width: 1; stroke-dasharray: none; stroke-linecap: butt; stroke-dashoffset: 0; stroke-linejoin: miter; stroke-miterlimit: 4; fill: rgb(120,144,156); fill-rule: nonzero; opacity: 1;"  points="6,18 -6,8 -6,-8 6,-18 " />
</g>
<g transform="matrix(4.17 0 0 4.17 227.92 200)" id="Layer_1"  >
<path style="stroke: none; stroke-width: 1; stroke-dasharray: none; stroke-linecap: butt; stroke-dashoffset: 0; stroke-linejoin: miter; stroke-miterlimit: 4; fill: rgb(3,169,244); fill-rule: nonzero; opacity: 1;"  transform=" translate(-30.7, -24)" d="M 33 24 c 0 2.48 -1.26 4.59 -3.17 5.83 L 28.4 28.4 c 1.58 -0.86 2.6 -2.46 2.6 -4.4 s -1.02 -3.54 -2.6 -4.4 l 1.43 -1.43 C 31.74 19.41 33 21.52 33 24 z" stroke-linecap="round" />
</g>
<g transform="matrix(4.17 0 0 4.17 245.83 199.94)" id="Layer_1"  >
<path style="stroke: none; stroke-width: 1; stroke-dasharray: none; stroke-linecap: butt; stroke-dashoffset: 0; stroke-linejoin: miter; stroke-miterlimit: 4; fill: rgb(41,182,246); fill-rule: nonzero; opacity: 1;"  transform=" translate(-35, -23.98)" d="M 38 24 c 0 3.81 -1.8 7.21 -4.61 9.39 L 32 32 c 2.44 -1.82 4 -4.75 4 -8 s -1.56 -6.18 -4 -8 l 1.42 -1.42 C 36.22 16.77 38 20.2 38 24 z" stroke-linecap="round" />
</g>
<g transform="matrix(4.17 0 0 4.17 263.65 200)" id="Layer_1"  >
<path style="stroke: none; stroke-width: 1; stroke-dasharray: none; stroke-linecap: butt; stroke-dashoffset: 0; stroke-linejoin: miter; stroke-miterlimit: 4; fill: rgb(79,195,247); fill-rule: nonzero; opacity: 1;"  transform=" translate(-39.27, -24)" d="M 43 24 c 0 5.19 -2.35 9.84 -6.03 12.97 l -1.42 -1.42 C 38.87 32.8 41 28.64 41 24 s -2.13 -8.8 -5.45 -11.55 l 1.42 -1.42 C 40.65 14.16 43 18.81 43 24 z" stroke-linecap="round" />
</g>
</svg>